HIERARCHY
ROOT hip
{
  OFFSET 0 0 0
  CHANNELS 6 Xposition Yposition Zposition Zrotation Yrotation Xrotation
  JOINT abdomen
  {
    OFFSET 0 20.6881 -0.73152
    CHANNELS 3 Zrotation Xrotation Yrotation
    JOINT chest
    {
      OFFSET 0 11.7043 -0.48768
      CHANNELS 3 Zrotation Xrotation Yrotation
      JOINT neck
      {
        OFFSET 0 22.1894 -2.19456
        CHANNELS 3 Zrotation Xrotation Yrotation
        JOINT head
        {
          OFFSET -0.24384 7.07133 1.2192
          CHANNELS 3 Zrotation Xrotation Yrotation
          JOINT leftEye
          {
            OFFSET 4.14528 8.04674 8.04672
            CHANNELS 3 Zrotation Xrotation Yrotation
            End Site
            {
              OFFSET 1 0 0
            }
          }
          JOINT rightEye
          {
            OFFSET -3.6576 8.04674 8.04672
            CHANNELS 3 Zrotation Xrotation Yrotation
            End Site
            {
              OFFSET 1 0 0
            }
          }
        }
      }
      JOINT rCollar
      {
        OFFSET -2.68224 19.2634 -4.8768
        CHANNELS 3 Zrotation Xrotation Yrotation
        JOINT rShldr
        {
          OFFSET -8.77824 -1.95073 1.46304
          CHANNELS 3 Zrotation Xrotation Yrotation
          JOINT rForeArm
          {
            OFFSET -28.1742 -1.7115 0.48768
            CHANNELS 3 Zrotation Xrotation Yrotation
            JOINT rHand
            {
              OFFSET -22.5879 0.773209 7.07136
              CHANNELS 3 Zrotation Xrotation Yrotation
              JOINT rThumb1
              {
                OFFSET -1.2192 -0.487915 3.41376
                CHANNELS 3 Zrotation Xrotation Yrotation
                JOINT rThumb2
                {
                  OFFSET -3.37035 -0.52449 3.41376
                  CHANNELS 3 Zrotation Xrotation Yrotation
                  End Site
                  {
                    OFFSET -1.78271 -1.18214 1.43049
                  }
                }
              }
              JOINT rIndex1
              {
                OFFSET -7.75947 0.938293 5.60832
                CHANNELS 3 Zrotation Xrotation Yrotation
                JOINT rIndex2
                {
                  OFFSET -2.54057 -0.884171 1.56538
                  CHANNELS 3 Zrotation Xrotation Yrotation
                  End Site
                  {
                    OFFSET -1.62519 -0.234802 1.16502
                  }
                }
              }
              JOINT rMid1
              {
                OFFSET -8.24714 1.18213 3.41376
                CHANNELS 3 Zrotation Xrotation Yrotation
                JOINT rMid2
                {
                  OFFSET -3.10165 -0.590103 1.0647
                  CHANNELS 3 Zrotation Xrotation Yrotation
                  End Site
                  {
                    OFFSET -2.48547 -0.328903 0.83742
                  }
                }
              }
              JOINT rRing1
              {
                OFFSET -8.82822 0.546677 1.51678
                CHANNELS 3 Zrotation Xrotation Yrotation
                JOINT rRing2
                {
                  OFFSET -2.60934 -0.819778 -0.0198488
                  CHANNELS 3 Zrotation Xrotation Yrotation
                  End Site
                  {
                    OFFSET -2.33842 -0.294052 0.168128
                  }
                }
              }
              JOINT rPinky1
              {
                OFFSET -8.27202 -0.0477905 -0.4584
                CHANNELS 3 Zrotation Xrotation Yrotation
                JOINT rPinky2
                {
                  OFFSET -1.82734 -0.647385 -0.700984
                  CHANNELS 3 Zrotation Xrotation Yrotation
                  End Site
                  {
                    OFFSET -1.69225 -0.51767 -0.607171
                  }
                }
              }
            }
          }
        }
      }
      JOINT lCollar
      {
        OFFSET 2.68224 19.2634 -4.8768
        CHANNELS 3 Zrotation Xrotation Yrotation
        JOINT lShldr
        {
          OFFSET 8.77824 -1.95073 1.46304
          CHANNELS 3 Zrotation Xrotation Yrotation
          JOINT lForeArm
          {
            OFFSET 28.1742 -1.7115 0.48768
            CHANNELS 3 Zrotation Xrotation Yrotation
            JOINT lHand
            {
              OFFSET 22.5879 0.773209 7.07136
              CHANNELS 3 Zrotation Xrotation Yrotation
              JOINT lThumb1
              {
                OFFSET 1.2192 -0.487915 3.41376
                CHANNELS 3 Zrotation Xrotation Yrotation
                JOINT lThumb2
                {
                  OFFSET 3.37035 -0.52449 3.41376
                  CHANNELS 3 Zrotation Xrotation Yrotation
                  End Site
                  {
                    OFFSET 1.78271 -1.18214 1.43049
                  }
                }
              }
              JOINT lIndex1
              {
                OFFSET 7.75947 0.938293 5.60832
                CHANNELS 3 Zrotation Xrotation Yrotation
                JOINT lIndex2
                {
                  OFFSET 2.54057 -0.884171 1.56538
                  CHANNELS 3 Zrotation Xrotation Yrotation
                  End Site
                  {
                    OFFSET 1.62519 -0.234802 1.16502
                  }
                }
              }
              JOINT lMid1
              {
                OFFSET 8.24714 1.18213 3.41376
                CHANNELS 3 Zrotation Xrotation Yrotation
                JOINT lMid2
                {
                  OFFSET 3.10165 -0.590103 1.0647
                  CHANNELS 3 Zrotation Xrotation Yrotation
                  End Site
                  {
                    OFFSET 2.48547 -0.328903 0.83742
                  }
                }
              }
              JOINT lRing1
              {
                OFFSET 8.82822 0.546677 1.51678
                CHANNELS 3 Zrotation Xrotation Yrotation
                JOINT lRing2
                {
                  OFFSET 2.60934 -0.819778 -0.0198488
                  CHANNELS 3 Zrotation Xrotation Yrotation
                  End Site
                  {
                    OFFSET 2.33842 -0.294052 0.168128
                  }
                }
              }
              JOINT lPinky1
              {
                OFFSET 8.27202 -0.0477905 -0.4584
                CHANNELS 3 Zrotation Xrotation Yrotation
                JOINT lPinky2
                {
                  OFFSET 1.82734 -0.647385 -0.700984
                  CHANNELS 3 Zrotation Xrotation Yrotation
                  End Site
                  {
                    OFFSET 1.69225 -0.51767 -0.607171
                  }
                }
              }
            }
          }
        }
      }
    }
  }
  JOINT rButtock
  {
    OFFSET -8.77824 4.35084 1.2192
    CHANNELS 3 Zrotation Xrotation Yrotation
    JOINT rThigh
    {
      OFFSET 0 -1.70687 -2.19456
      CHANNELS 3 Zrotation Xrotation Yrotation
      JOINT rShin
      {
        OFFSET 0 -36.8199 0.73152
        CHANNELS 3 Zrotation Xrotation Yrotation
        JOINT rFoot
        {
          OFFSET 0.73152 -45.1104 -5.12064
          CHANNELS 3 Zrotation Xrotation Yrotation
          End Site
          {
            OFFSET -1.1221 -3.69964 12.103
          }
        }
      }
    }
  }
  JOINT lButtock
  {
    OFFSET 8.77824 4.35084 1.2192
    CHANNELS 3 Zrotation Xrotation Yrotation
    JOINT lThigh
    {
      OFFSET 0 -1.70687 -2.19456
      CHANNELS 3 Zrotation Xrotation Yrotation
      JOINT lShin
      {
        OFFSET 0 -36.8199 0.73152
        CHANNELS 3 Zrotation Xrotation Yrotation
        JOINT lFoot
        {
          OFFSET -0.73152 -45.1104 -5.12064
          CHANNELS 3 Zrotation Xrotation Yrotation
          End Site
          {
            OFFSET 1.1221 -3.69964 12.103
          }
        }
      }
    }
  }
}
MOTION
Frames:	4
Frame Time:	0.03333
0.018801912665367126 62.32001185417175 0.11123456060886383 -4.089744567871094 1.7765167951583862 4.1098952293396 -2.383789300918579 15.121040344238281 3.9077682495117188 2.6511504650115967 -9.706088066101074 1.2366528511047363 -5.127206802368164 15.008520126342773 -3.5580010414123535 8.809123039245605 -24.0347900390625 -4.976003646850586 -0.044032663106918335 -0.024613216519355774 0.06794238835573196 0.039680350571870804 -0.021487707272171974 0.08217745274305344 0.00564192607998848 0.05545773357152939 0.06311706453561783 42.093196868896484 35.581321716308594 19.271984100341797 -28.187292098999023 -28.987396240234375 64.76110076904297 -0.20456984639167786 -13.335578918457031 -1.9945355653762817 -0.06071612983942032 -0.008555630221962929 0.013426128774881363 0.0020115498919039965 -0.00392053322866559 -0.003330608829855919 -0.01611805148422718 0.05749323591589928 -0.005683462601155043 7.632170677185059 5.404428005218506 0.38476523756980896 0.03388513624668121 0.010382131673395634 -0.09103208780288696 2.965937376022339 0.9660738706588745 0.16894832253456116 0.052730970084667206 -0.012537874281406403 0.004763316363096237 10.254228591918945 0.6552016139030457 0.0226972084492445 -0.03784336522221565 -0.06352731585502625 0.02794555202126503 2.2223050594329834 -0.7235758900642395 -0.22133435308933258 -0.012193843722343445 0.01225421391427517 -0.040124934166669846 -48.38272476196289 37.48768997192383 -29.952816009521484 27.439237594604492 -26.640836715698242 -61.44799041748047 0.15475019812583923 -14.778204917907715 2.044405937194824 -0.03577056899666786 0.02536088228225708 0.015501560643315315 0.05900242552161217 -0.01856253109872341 -0.018438197672367096 -0.016407346352934837 0.01382614579051733 -0.03579210862517357 -7.71066427230835 5.498344421386719 -0.4158082902431488 0.033449310809373856 0.035542603582143784 -0.01807977631688118 -2.888002634048462 0.9617270827293396 -0.0890045315027237 0.007880295626819134 -0.023094749078154564 0.020741133019328117 -10.236534118652344 0.7046946287155151 -0.024444647133350372 -0.09315665811300278 0.022887011989951134 0.02152196504175663 -2.1858999729156494 -0.6956529021263123 0.1383388340473175 0.05364164337515831 -0.12555304169654846 0.01810544915497303 -24.86646842956543 -40.078487396240234 -20.516952514648438 -1.521336317062378 65.50409698486328 2.543247938156128 -3.802985191345215 -10.848692893981934 -9.98714542388916 0.019503921270370483 -0.01793878898024559 -0.014684655703604221 30.03298568725586 -39.9692268371582 22.96294593811035 1.5557805299758911 65.80017852783203 -2.6757469177246094 4.14607048034668 -10.966614723205566 13.48121452331543
0.01193024218082428 63.420504331588745 0.05389414727687836 -3.7617998123168945 0.5158551931381226 4.5800957679748535 -2.4020633697509766 14.469239234924316 3.621568441390991 2.843745231628418 -9.493548393249512 1.0781116485595703 -5.296303749084473 15.072010040283203 -3.9438974857330322 8.755122184753418 -23.784666061401367 -5.9806694984436035 0.01645931415259838 -0.09473598003387451 -0.06461726874113083 0.07112468034029007 0.07790257781744003 0.027810558676719666 0.013576739467680454 -0.014464195817708969 0.050537750124931335 44.839351654052734 36.82931137084961 17.763904571533203 -27.044355392456055 -27.78260612487793 64.73187255859375 -0.1545652151107788 -11.375444412231445 -1.535896897315979 -0.12122102826833725 0.11231113225221634 0.013351934030652046 -0.0018674494931474328 0.05430932343006134 0.0024060721043497324 0.003464380744844675 0.0009235834586434066 0.13502484560012817 7.643248558044434 5.529705047607422 0.3611676096916199 0.0753791481256485 -0.010084841400384903 -0.14342917501926422 2.892538547515869 1.0629035234451294 0.12752707302570343 -0.030592799186706543 -0.10258564352989197 0.037317004054784775 10.429441452026367 0.745372474193573 -0.004506352357566357 -0.06750920414924622 -0.04320332407951355 0.12636813521385193 2.1554489135742188 -0.7167267799377441 -0.19042858481407166 0.05451682582497597 -0.019107505679130554 -0.08590178936719894 -51.14988327026367 38.29594039916992 -28.711339950561523 26.354291915893555 -25.195358276367188 -60.59397888183594 0.00470957113429904 -12.490503311157227 1.8851706981658936 -0.06338462233543396 0.039030659943819046 0.08399920165538788 0.08743001520633698 0.09108653664588928 -0.03795838728547096 -0.03218522295355797 0.0037980678025633097 -0.06165803596377373 -7.691446781158447 5.360590934753418 -0.4299865961074829 0.048262882977724075 0.08243875205516815 -0.05772397294640541 -2.851210832595825 0.847450315952301 0.022194044664502144 0.029714543372392654 -0.07185143232345581 0.04002721235156059 -10.288287162780762 0.7301586270332336 -0.06771937012672424 -0.05185996741056442 0.026570551097393036 0.054964423179626465 -2.388277769088745 -0.6545332670211792 0.1482221484184265 0.05542292445898056 0.08616958558559418 0.11117828637361526 -23.449256896972656 -39.31893539428711 -18.890493392944336 -1.6363614797592163 64.62013244628906 2.6453857421875 -3.600592613220215 -10.547030448913574 -10.334761619567871 -0.0018854576628655195 0.02075216919183731 0.004744068253785372 29.218997955322266 -39.67702865600586 21.5355167388916 1.3921582698822021 65.84757232666016 -2.725098133087158 4.3676252365112305 -10.576644897460938 13.649361610412598
0.310724601149559 60.99969744682312 -0.3964617848396301 -5.02246618270874 -62.71612548828125 5.330717086791992 0.44638633728027344 17.420948028564453 10.713268280029297 -0.7415003180503845 -11.273478507995605 2.7054800987243652 -0.10956114530563354 13.152589797973633 9.145069122314453 4.2930073738098145 -24.12683868408203 21.01540756225586 -0.13142111897468567 -0.02886306121945381 0.26300159096717834 -0.10499010235071182 0.23184674978256226 0.1648150235414505 0.5158703923225403 -0.1423819214105606 0.0674695298075676 74.42916870117188 78.47105407714844 -11.356264114379883 -22.487274169921875 -51.09358215332031 107.2038803100586 -23.204391479492188 -74.0428695678711 -30.363433837890625 -0.49453651905059814 0.07553300261497498 0.14918185770511627 0.06223214417695999 -0.44708263874053955 0.4920157492160797 0.012527850456535816 0.21901746094226837 0.007014894858002663 7.610440731048584 5.764840602874756 0.553895890712738 -0.28395166993141174 0.21797481179237366 -0.44131651520729065 3.311613082885742 0.9664101600646973 0.026554275304079056 0.17114761471748352 0.003924259915947914 0.021610766649246216 10.465764045715332 0.5195775032043457 -0.005956495646387339 -0.1102619618177414 -0.14926888048648834 0.26816123723983765 2.24267578125 -0.6154767274856567 -0.2415096014738083 0.06632549315690994 0.10495084524154663 -0.19326908886432648 -53.37147521972656 4.152357578277588 -48.33149719238281 26.326923370361328 -25.70929527282715 -60.53926086425781 0.44349637627601624 22.56354331970215 -2.6396141052246094 -0.4669543504714966 -0.3799591064453125 -0.024223748594522476 -0.29646846652030945 -0.2574315369129181 -0.37767335772514343 0.12581050395965576 0.21903829276561737 0.27406108379364014 -7.610876083374023 5.764916896820068 -0.6896209120750427 -0.2696878910064697 0.13287052512168884 -0.06842212378978729 -3.176988363265991 1.1200957298278809 -0.26689380407333374 -0.4028966426849365 0.019164571538567543 0.38712289929389954 -10.374106407165527 0.6360846757888794 0.00820015650242567 0.06100025027990341 0.16211867332458496 0.15972411632537842 -2.067586898803711 -0.7597291469573975 0.32882970571517944 0.011707021854817867 -0.0306218471378088 -0.05722435563802719 -20.492935180664062 -32.840728759765625 -21.02044677734375 -4.279873371124268 79.43738555908203 5.703664779663086 -11.286758422851562 -22.251737594604492 -25.21673011779785 0.05802055448293686 0.04988718777894974 0.028277898207306862 68.57940673828125 -50.57209777832031 61.33897399902344 2.2033116817474365 76.53142547607422 -2.740368127822876 0.18676865100860596 1.1644604206085205 2.669168472290039
0.5942299962043762 57.14818835258484 -0.18920069560408592 2.324437141418457 -59.339927673339844 11.106660842895508 -4.173689365386963 13.639379501342773 13.517417907714844 -1.4409353733062744 -12.953536033630371 3.2104501724243164 -1.4191066026687622 13.049304008483887 8.727787971496582 6.364628314971924 -22.259807586669922 17.721599578857422 -0.4913366734981537 -0.433214396238327 0.08463295549154282 -0.33088418841362 0.48199212551116943 -0.13547499477863312 -0.18524280190467834 -0.15509957075119019 0.1114945337176323 15.797575950622559 78.42697143554688 52.42748260498047 -25.71630096435547 -44.963623046875 95.83763885498047 -36.24322509765625 -78.0589370727539 -43.1235466003418 -0.2199670523405075 0.17231006920337677 -0.19427722692489624 0.1891535520553589 -0.2500655949115753 0.12327750027179718 -0.3201677203178406 0.3609538674354553 0.11617183685302734 8.131839752197266 5.266993522644043 0.42556655406951904 -0.09879881888628006 0.2085219919681549 -0.08444679528474808 2.7320406436920166 1.2258380651474 0.32618221640586853 -0.22619424760341644 0.08352872729301453 0.2585364878177643 10.589068412780762 0.7002994418144226 -0.08131587505340576 -0.06932731717824936 -0.31565892696380615 0.05372828245162964 1.8730789422988892 -1.1298985481262207 -0.006653687451034784 0.2561946213245392 0.11819124221801758 -0.21900822222232819 -63.78183364868164 8.45253849029541 -30.58454704284668 28.31511878967285 -31.705257415771484 -70.45037841796875 0.2942289710044861 19.564638137817383 -2.8662781715393066 -0.5583356022834778 -0.11890473961830139 -0.1859068125486374 -0.01323559321463108 -0.1070769801735878 -0.3494323492050171 -0.16375434398651123 -0.6331577897071838 -0.23478560149669647 -7.354894161224365 5.531758785247803 -0.21237917244434357 -0.4967621862888336 0.47810858488082886 -0.4345934987068176 -3.2793684005737305 1.149442195892334 -0.37811920046806335 -0.238173246383667 -0.6253323554992676 0.12614789605140686 -9.980965614318848 0.9894108176231384 -0.37021732330322266 0.42470523715019226 0.14628705382347107 0.6781392693519592 -2.22377610206604 -0.3517245352268219 0.05393792316317558 0.018123289570212364 0.10837949812412262 0.42253702878952026 -25.099750518798828 -38.921634674072266 -31.10553741455078 -14.150431632995605 86.12222290039062 16.258222579956055 -9.659605026245117 -21.861141204833984 -21.140235900878906 0.5400409698486328 0.021929850801825523 -0.3597397208213806 57.48767852783203 -42.628414154052734 52.593292236328125 0.7197537422180176 65.18024444580078 -1.6273837089538574 -0.10297732800245285 3.5852677822113037 7.630162715911865
